<svg data-v-2cb57da0="" version="1.0" xmlns="http://www.w3.org/2000/svg" xmlns:xlink="http://www.w3.org/1999/xlink" width="100%" height="100%" viewBox="0 0 340.000000 250.000000" preserveAspectRatio="xMidYMid meet" color-interpolation-filters="sRGB" style="margin: auto;"><rect data-v-2cb57da0="" x="0" y="0" width="100%" height="100%" fill="#fff" fill-opacity="1" class="background"></rect> <rect data-v-2cb57da0="" x="0" y="0" width="100%" height="100%" fill="url(#watermark)" fill-opacity="1" class="watermarklayer"></rect> <g data-v-2cb57da0="" fill="#afb9d2" class="icon-text-wrapper icon-svg-group iconsvg" transform="translate(63.475006103515625,95.08999824523926)"><g class="iconsvg-imagesvg" transform="translate(0,6.116905212402344)"><g><rect fill="#afb9d2" fill-opacity="0" stroke-width="2" x="0" y="0" width="60" height="47.586190487520525" class="image-rect"></rect> <svg x="0" y="0" width="60" height="47.586190487520525" filtersec="colorsb6839143389" class="image-svg-svg primary" style="overflow: visible;"><svg xmlns="http://www.w3.org/2000/svg" viewBox="0.00023794174194335938 52.964752197265625 512.0003662109375 406.0702209472656"><path d="M191.194 148.304h129.614l-58.319-91.782c-3.014-4.743-9.962-4.743-12.975 0l-58.32 91.782z" fill="#464655"></path><path d="M510.799 447.304l-41.908-65.953H43.11L1.202 447.304c-3.234 5.089.439 11.731 6.488 11.731h496.62c6.049 0 9.723-6.642 6.489-11.731z" fill="#eff2fa"></path><path fill="#d7deed" d="M43.11 381.352h425.781l-49.362-77.684H92.471z"></path><path fill="#c7cfe2" d="M92.471 303.668h327.058l-49.361-77.681H141.832z"></path><path fill="#afb9d2" d="M141.832 225.987h228.336l-49.36-77.683H191.194z"></path></svg></svg> <!----></g></g> <g transform="translate(67,0)"><g data-gra="path-name" fill-rule="" class="tp-name iconsvg-namesvg" transform="translate(0,0)"><g transform="scale(1)"><g><path d="M9.95-7.5L9.95-7.5 2.1-10.2Q8.4-19.6 8.85-30.65L8.85-30.65 16.35-29.5Q15.4-16 9.95-7.5ZM20.5 3.9L20.5 3.9Q17.65 3.9 13.15 3.45L13.15 3.45 13-4.9Q16.3-3.9 18-3.9L18-3.9Q19.35-3.9 20.3-4.28 21.25-4.65 21.33-6.48 21.4-8.3 21.4-16.5L21.4-16.5Q21.4-23.75 21.15-38.65L21.15-38.65 28.5-38.9Q29.25-22.1 29.25-14.3L29.25-14.3Q29.25-4.85 28.75-0.9L28.75-0.9Q28.4 1.15 27.2 2.35L27.2 2.35Q25.4 3.9 20.5 3.9ZM47.7-8.15L38.9-6.4Q36.5-19.75 32.6-28.65L32.6-28.65 39.75-30.5Q45.1-19.85 47.7-8.15L47.7-8.15ZM97.35-1.6L89.95 1.65Q87.7-4.5 82.3-10.45L82.3-10.45 89.05-13.15Q94.25-8.5 97.35-1.6L97.35-1.6ZM72.7-13.55L72.7-13.55Q71.45-13.5 70.35-13.5L70.35-13.5 67.85-13.5Q61.95-13.5 59.9-14.05 57.85-14.6 56.5-15.8 55.15-17 55.15-20.35L55.15-20.35Q55.15-23.3 56.75-35.4L56.75-35.4Q78-36.1 89.35-38.95L89.35-38.95 92.25-32.8Q80.2-29.75 63.25-29L63.25-29Q62.7-24.4 62.7-22.85L62.7-22.85 62.7-22Q62.7-21.4 63.4-20.98 64.1-20.55 67.35-20.55L67.35-20.55Q70.2-20.55 72.5-20.65L72.5-20.65 72.15-27.35 78.75-27.8Q79.1-24.1 79.3-21L79.3-21Q86.35-21.55 94.8-22.7L94.8-22.7 95.3-15Q89.2-14.15 79.75-13.7L79.75-13.7Q79.85-9.55 79.85-5.75L79.85-5.75Q79.75-0.1 77.55 1.9L77.55 1.9Q75.6 4.05 68.8 3.85L68.8 3.85 67.9 3.75 65.8-4.05Q68.45-3.7 69.35-3.65L69.35-3.65Q71.7-3.65 72.2-5.45L72.2-5.45Q72.7-6.2 72.7-10.25L72.7-10.25Q72.7-12 72.7-13.55ZM57.4 2.15L57.4 2.15 52.6-3.45Q57.9-6.95 60.7-12.85L60.7-12.85 67.1-10.85Q64.3-2.75 57.4 2.15ZM122.8 3.75L122.8 3.75Q119.7 3.7 112.95 2.65L112.95 2.65 112.35-5.45Q120.2-4.5 121.9-4.45L121.9-4.45Q123.3-4.45 123.3-6.6L123.3-6.6Q123.3-10.65 122.9-13.25L122.9-13.25Q114.2-13 102.8-12.85L102.8-12.85 102.6-20.7Q112.7-20.75 122.4-20.75L122.4-20.75 122.25-24.3Q125.7-26.15 129.2-28.75L129.2-28.75Q130.35-29.85 130.35-30.45L130.35-30.45Q130.35-31.3 129.6-31.3L129.6-31.3 129.4-31.35Q119.1-30.8 109.05-29.95L109.05-29.95 108.75-37Q120.45-38.05 137.45-38.65L137.45-38.65Q140.45-38.6 141.15-35.85L141.15-35.85Q141.25-35.15 141.25-34.55L141.25-34.55Q141.25-32.25 140-30.05L140-30.05Q136.7-25.35 129.7-21.25L129.7-21.25Q137.2-21.35 147.7-22.1L147.7-22.1 148.15-14.3Q139.15-13.95 130.15-13.5L130.15-13.5Q130.9-6.6 130.9-3.9L130.9-3.9Q130.9-2.6 130.7-1.05L130.7-1.05Q130.4 3.3 125.9 3.7L125.9 3.7Q124.35 3.8 122.8 3.75Z" transform="translate(-2.0999999046325684, 38.95000076293945)"></path></g> <!----> <!----> <!----> <!----> <!----> <!----> <!----></g></g> <g data-gra="path-slogan" fill-rule="" class="tp-slogan iconsvg-slogansvg" fill="#afb9d2" transform="translate(5,48.85000228881836)"><rect x="0" height="1" y="4.985000133514404" width="41.4949951171875"></rect> <rect height="1" y="4.985000133514404" width="41.4949951171875" x="94.55499267578125"></rect> <g transform="translate(44.4949951171875,0)"><g transform="scale(1)"><path d="M7.36-9.75L7.36-9.75Q8.44-9.56 8.58-9.38L8.58-9.38Q8.58-9.33 8.48-9.23L8.48-9.23Q8.16-8.95 7.88-8.48L7.88-8.48L9.66-8.48Q10.69-8.48 11.20-8.58L11.20-8.58Q11.30-8.58 11.30-8.58L11.30-8.58L11.30-7.64Q11.30-7.64 11.20-7.64L11.20-7.64Q10.64-7.73 9.61-7.73L9.61-7.73L9.19-7.73Q9.33-7.41 9.52-6.98L9.52-6.98Q9.61-6.75 9.66-6.61L9.66-6.61L8.63-6.47Q8.44-7.45 8.25-7.73L8.25-7.73L7.50-7.73Q6.98-6.89 6.52-6.38L6.52-6.38L5.53-6.66Q6.70-7.50 7.36-9.75ZM2.77-9.70L2.77-9.70Q3.84-9.38 3.89-9.23L3.89-9.23Q3.89-9.19 3.75-9.09L3.75-9.09Q3.42-8.86 3.14-8.48L3.14-8.48L4.50-8.48Q5.39-8.48 5.95-8.58L5.95-8.58Q6.05-8.58 6.09-8.58L6.09-8.58L6.09-7.64Q6.05-7.64 5.95-7.64L5.95-7.64Q5.48-7.73 4.59-7.73L4.59-7.73L4.41-7.73Q4.59-7.31 4.83-6.61L4.83-6.61L3.84-6.56Q3.80-7.17 3.47-7.73L3.47-7.73L2.67-7.73Q2.58-7.64 2.53-7.55L2.53-7.55Q2.11-6.94 1.69-6.52L1.69-6.52Q1.55-6.38 1.36-6.19L1.36-6.19L0.38-6.66Q2.02-7.78 2.77-9.70ZM2.44-6.09L3.33-6.42Q3.84-5.72 4.22-4.92L4.22-4.92L3.33-4.55Q3.05-5.25 2.44-6.09L2.44-6.09ZM10.55-6.14L10.55-6.14Q10.45-5.77 10.45-4.88L10.45-4.88L10.45 0Q10.78 1.17 8.34 1.22L8.34 1.22Q8.20 0.42 7.92 0L7.92 0Q9.52 0.42 9.42-0.42L9.42-0.42L9.42-5.30L6.23-5.30Q5.34-5.30 4.64-5.20L4.64-5.20Q4.55-5.20 4.55-5.20L4.55-5.20L4.55-6.23Q4.59-6.23 4.69-6.23L4.69-6.23Q5.30-6.14 6.23-6.14L6.23-6.14L9.19-6.14Q9.75-6.14 10.22-6.19L10.22-6.19Q10.36-6.19 10.41-6.19L10.41-6.19Q10.55-6.23 10.55-6.14ZM1.55-5.06L1.55-5.06Q2.67-5.02 2.77-4.83L2.77-4.83Q2.77-4.78 2.72-4.69L2.72-4.69Q2.53-4.31 2.53-3.80L2.53-3.80L2.53-0.66Q2.53 0.47 2.63 1.03L2.63 1.03Q2.63 1.13 2.63 1.13L2.63 1.13L1.50 1.13Q1.59 0.70 1.59-0.61L1.59-0.61L1.59-3.84Q1.59-4.88 1.55-5.06ZM8.02-3.33L8.02-3.33L8.02-1.69Q8.02-0.70 8.11-0.33L8.11-0.33Q7.92-0.42 6.89-0.42L6.89-0.42L4.97-0.42Q3.98-0.42 3.80-0.33L3.80-0.33Q3.89-0.75 3.89-1.45L3.89-1.45L3.89-3.23Q3.89-4.13 3.80-4.50L3.80-4.50Q4.13-4.41 5.06-4.41L5.06-4.41L6.89-4.41Q8.02-4.41 8.11-4.45L8.11-4.45Q8.02-4.27 8.02-3.33ZM7.08-3.70L4.78-3.70L4.78-2.72L7.08-2.72L7.08-3.70ZM7.08-2.11L4.83-2.11L4.83-1.13L7.08-1.13L7.08-2.11ZM18.84-9.66L18.84-9.66Q19.97-9.61 20.11-9.47L20.11-9.47Q20.11-9.42 20.06-9.38L20.06-9.38Q19.88-8.86 19.88-7.69L19.88-7.69L21.56-7.69Q22.64-7.69 23.16-7.83L23.16-7.83Q23.20-7.83 23.20-7.83L23.20-7.83L23.20-6.75Q23.20-6.75 23.11-6.75L23.11-6.75Q22.59-6.84 21.61-6.84L21.61-6.84L19.88-6.84L19.88-5.34L20.95-5.34Q21.98-5.34 22.59-5.44L22.59-5.44Q22.69-5.44 22.73-5.44L22.73-5.44L22.73-4.41Q22.73-4.41 22.69-4.41L22.69-4.41Q22.17-4.45 20.91-4.45L20.91-4.45L17.67-4.45Q16.83-4.45 16.22-4.36L16.22-4.36Q16.08-4.36 16.03-4.36L16.03-4.36L16.03-5.44Q16.03-5.44 16.13-5.44L16.13-5.44Q16.69-5.34 17.63-5.34L17.63-5.34L18.89-5.34L18.89-6.84L17.48-6.84Q16.59-6.84 15.98-6.75L15.98-6.75Q15.89-6.75 15.84-6.75L15.84-6.75L15.84-7.78Q15.89-7.78 15.98-7.78L15.98-7.78Q16.59-7.69 17.48-7.69L17.48-7.69L18.94-7.69Q18.94-8.81 18.84-9.52L18.84-9.52Q18.84-9.61 18.84-9.66ZM13.13-8.39L13.83-9.14Q14.95-8.34 15.61-7.73L15.61-7.73L14.81-6.94Q14.11-7.73 13.13-8.39L13.13-8.39ZM12.42-5.48L13.08-6.23Q13.59-5.91 14.44-5.34L14.44-5.34Q14.81-5.06 15.09-4.88L15.09-4.88L14.39-3.98Q13.78-4.59 12.42-5.48L12.42-5.48ZM14.39-3.47L14.39-3.47L15.38-2.81Q14.48-0.70 14.06 0.75L14.06 0.75Q13.97 1.03 13.92 1.08L13.92 1.08Q13.73 1.08 12.80 0.38L12.80 0.38Q13.69-0.89 14.39-3.47ZM22.22-1.97L22.22-1.97L22.22-0.52Q22.22 0.38 22.31 0.89L22.31 0.89Q22.31 0.98 22.31 1.03L22.31 1.03L21.14 1.03Q21.19 0.89 21.19 0.19L21.19 0.19L17.48 0.19Q17.48 0.94 17.53 1.08L17.53 1.08L16.41 1.08Q16.41 1.03 16.41 0.94L16.41 0.94Q16.50 0.38 16.50-0.52L16.50-0.52L16.50-2.16Q16.50-3.05 16.41-3.42L16.41-3.42Q16.92-3.33 17.86-3.33L17.86-3.33L20.77-3.33Q21.98-3.33 22.27-3.42L22.27-3.42Q22.22-3.28 22.22-1.97ZM21.19-2.44L17.48-2.44L17.48-0.52L21.19-0.52L21.19-2.44ZM34.69-8.91L34.69-8.91L34.69-7.92Q34.31-7.97 32.95-7.97L32.95-7.97L28.97-7.97Q29.20-7.88 29.63-7.69L29.63-7.69Q30.28-7.45 30.23-7.45L30.23-7.45Q30.23-7.41 30.09-7.31L30.09-7.31Q29.16-6.66 27.52-5.20L27.52-5.20L32.34-5.34Q31.50-6.19 31.08-6.47L31.08-6.47L31.92-6.98Q33.42-5.72 34.41-4.55L34.41-4.55L33.47-3.89Q33.28-4.27 32.91-4.59L32.91-4.59L30.52-4.50L30.52-2.91L32.58-2.91Q33.52-2.91 33.75-2.95L33.75-2.95L33.75-2.02Q33.47-2.11 32.58-2.11L32.58-2.11L30.52-2.11L30.52-0.52L33.38-0.52Q34.83-0.52 35.20-0.56L35.20-0.56L35.20 0.33Q34.92 0.28 33.38 0.28L33.38 0.28L26.34 0.28Q24.80 0.28 24.52 0.33L24.52 0.33L24.52-0.56Q24.52-0.56 24.56-0.56L24.56-0.56Q24.98-0.52 26.34-0.52L26.34-0.52L29.44-0.52L29.44-2.11L27.09-2.11Q26.16-2.11 25.92-2.06L25.92-2.06Q25.88-2.06 25.88-2.06L25.88-2.06L25.88-2.95Q26.16-2.91 27.09-2.91L27.09-2.91L29.44-2.91L29.44-4.45Q29.30-4.45 28.88-4.41L28.88-4.41Q26.77-4.31 26.25-4.17L26.25-4.17L25.88-5.16Q27.61-5.91 28.78-7.97L28.78-7.97L26.86-7.97Q25.41-7.97 25.17-7.92L25.17-7.92L25.17-8.91Q25.55-8.81 26.81-8.81L26.81-8.81L32.86-8.81Q34.22-8.81 34.69-8.91ZM41.02-9.42L41.02-9.42Q42.33-9.42 42.38-9.19L42.38-9.19Q42.38-9.09 42.33-9L42.33-9Q42.19-8.77 42.19-8.48L42.19-8.48L42.19-5.91L44.06-5.91Q45.19-5.91 46.41-6L46.41-6L46.41-4.92Q45.66-4.97 44.06-4.97L44.06-4.97L42.19-4.97L42.19-0.28L45.28-0.28Q46.92-0.28 47.44-0.33L47.44-0.33L47.44 0.66Q46.55 0.56 45.33 0.56L45.33 0.56L38.44 0.56Q37.50 0.56 36.56 0.66L36.56 0.66L36.56-0.38Q37.69-0.28 38.48-0.28L38.48-0.28L41.11-0.28L41.11-8.30Q41.11-9.05 41.02-9.42Z" transform="translate(-0.375, 9.75)"></path></g></g></g></g></g><defs v-gra="od"></defs></svg>